<svg xmlns="http://www.w3.org/2000/svg" xmlns:xlink="http://www.w3.org/1999/xlink">
    <!-- Иконка лупы -->
    <symbol id="icon-search" viewBox="0 0 24 24" width="24" height="24" fill="none">
        <path
            d="M21.7099 20.29L17.9999 16.61C19.44 14.8144 20.1374 12.5353 19.9487 10.2413C19.76 7.94733 18.6996 5.81281 16.9854 4.27667C15.2713 2.74053 13.0337 1.91954 10.7328 1.9825C8.43194 2.04546 6.24263 2.98759 4.61505 4.61517C2.98747 6.24275 2.04534 8.43207 1.98237 10.7329C1.91941 13.0338 2.74041 15.2714 4.27655 16.9855C5.81269 18.6997 7.94721 19.7601 10.2412 19.9488C12.5352 20.1375 14.8143 19.4401 16.6099 18L20.2899 21.68C20.3829 21.7738 20.4935 21.8482 20.6153 21.8989C20.7372 21.9497 20.8679 21.9758 20.9999 21.9758C21.1319 21.9758 21.2626 21.9497 21.3845 21.8989C21.5063 21.8482 21.6169 21.7738 21.7099 21.68C21.8901 21.4936 21.9909 21.2444 21.9909 20.985C21.9909 20.7257 21.8901 20.4765 21.7099 20.29ZM10.9999 18C9.61544 18 8.26206 17.5895 7.11091 16.8203C5.95977 16.0511 5.06256 14.9579 4.53275 13.6788C4.00293 12.3997 3.86431 10.9923 4.13441 9.63439C4.4045 8.27653 5.07119 7.02925 6.05016 6.05028C7.02912 5.07131 8.27641 4.40463 9.63427 4.13453C10.9921 3.86443 12.3996 4.00306 13.6787 4.53287C14.9578 5.06268 16.051 5.95989 16.8202 7.11103C17.5894 8.26218 17.9999 9.61556 17.9999 11C17.9999 12.8565 17.2624 14.637 15.9497 15.9498C14.6369 17.2625 12.8564 18 10.9999 18Z"
            fill="currentColor" />
    </symbol>
    <!-- Иконка сортировки -->
    <symbol id="icon-sort" viewBox="0 0 24 24" width="24" height="24" fill="none">
        <path
            d="M3.5 6C3.30222 6 3.10888 6.05865 2.94443 6.16853C2.77998 6.27841 2.65181 6.43459 2.57612 6.61732C2.50043 6.80004 2.48063 7.00111 2.51922 7.19509C2.5578 7.38907 2.65304 7.56725 2.79289 7.70711C2.93275 7.84696 3.11093 7.9422 3.30491 7.98079C3.49889 8.01937 3.69996 7.99957 3.88268 7.92388C4.06541 7.84819 4.22159 7.72002 4.33147 7.55557C4.44135 7.39112 4.5 7.19778 4.5 7C4.5 6.73478 4.39464 6.48043 4.20711 6.29289C4.01957 6.10536 3.76522 6 3.5 6ZM7.5 8H21.5C21.7652 8 22.0196 7.89464 22.2071 7.70711C22.3946 7.51957 22.5 7.26522 22.5 7C22.5 6.73478 22.3946 6.48043 22.2071 6.29289C22.0196 6.10536 21.7652 6 21.5 6H7.5C7.23478 6 6.98043 6.10536 6.79289 6.29289C6.60536 6.48043 6.5 6.73478 6.5 7C6.5 7.26522 6.60536 7.51957 6.79289 7.70711C6.98043 7.89464 7.23478 8 7.5 8ZM7.5 11C7.30222 11 7.10888 11.0586 6.94443 11.1685C6.77998 11.2784 6.65181 11.4346 6.57612 11.6173C6.50043 11.8 6.48063 12.0011 6.51922 12.1951C6.5578 12.3891 6.65304 12.5673 6.79289 12.7071C6.93275 12.847 7.11093 12.9422 7.30491 12.9808C7.49889 13.0194 7.69996 12.9996 7.88268 12.9239C8.06541 12.8482 8.22159 12.72 8.33147 12.5556C8.44135 12.3911 8.5 12.1978 8.5 12C8.5 11.7348 8.39464 11.4804 8.20711 11.2929C8.01957 11.1054 7.76522 11 7.5 11ZM11.5 16C11.3022 16 11.1089 16.0586 10.9444 16.1685C10.78 16.2784 10.6518 16.4346 10.5761 16.6173C10.5004 16.8 10.4806 17.0011 10.5192 17.1951C10.5578 17.3891 10.653 17.5673 10.7929 17.7071C10.9327 17.847 11.1109 17.9422 11.3049 17.9808C11.4989 18.0194 11.7 17.9996 11.8827 17.9239C12.0654 17.8482 12.2216 17.72 12.3315 17.5556C12.4414 17.3911 12.5 17.1978 12.5 17C12.5 16.7348 12.3946 16.4804 12.2071 16.2929C12.0196 16.1054 11.7652 16 11.5 16ZM21.5 11H11.5C11.2348 11 10.9804 11.1054 10.7929 11.2929C10.6054 11.4804 10.5 11.7348 10.5 12C10.5 12.2652 10.6054 12.5196 10.7929 12.7071C10.9804 12.8946 11.2348 13 11.5 13H21.5C21.7652 13 22.0196 12.8946 22.2071 12.7071C22.3946 12.5196 22.5 12.2652 22.5 12C22.5 11.7348 22.3946 11.4804 22.2071 11.2929C22.0196 11.1054 21.7652 11 21.5 11ZM21.5 16H15.5C15.2348 16 14.9804 16.1054 14.7929 16.2929C14.6054 16.4804 14.5 16.7348 14.5 17C14.5 17.2652 14.6054 17.5196 14.7929 17.7071C14.9804 17.8946 15.2348 18 15.5 18H21.5C21.7652 18 22.0196 17.8946 22.2071 17.7071C22.3946 17.5196 22.5 17.2652 22.5 17C22.5 16.7348 22.3946 16.4804 22.2071 16.2929C22.0196 16.1054 21.7652 16 21.5 16Z"
            fill="currentColor" />
    </symbol>
    <!-- Иконка стрелка влево-->
    <symbol id="icon-back-arrow" viewBox="0 0 24 24" width="24" height="24" fill="none">
        <path
            d="M9.17006 12.7101L13.4101 16.9501C13.503 17.0438 13.6136 17.1182 13.7355 17.1689C13.8573 17.2197 13.988 17.2458 14.1201 17.2458C14.2521 17.2458 14.3828 17.2197 14.5046 17.1689C14.6265 17.1182 14.7371 17.0438 14.8301 16.9501C15.0163 16.7627 15.1208 16.5092 15.1208 16.2451C15.1208 15.9809 15.0163 15.7274 14.8301 15.5401L11.2901 12.0001L14.8301 8.46005C15.0163 8.27269 15.1209 8.01924 15.1209 7.75505C15.1209 7.49086 15.0163 7.23741 14.8301 7.05005C14.7366 6.95737 14.6258 6.88404 14.504 6.83428C14.3821 6.78452 14.2517 6.75929 14.1201 6.76005C13.9885 6.75929 13.858 6.78452 13.7362 6.83428C13.6143 6.88404 13.5035 6.95737 13.4101 7.05005L9.17006 11.2901C9.07633 11.383 9.00194 11.4936 8.95117 11.6155C8.9004 11.7373 8.87426 11.868 8.87426 12.0001C8.87426 12.1321 8.9004 12.2628 8.95117 12.3846C9.00194 12.5065 9.07633 12.6171 9.17006 12.7101Z"
            fill="#050510" />
    </symbol>
    <!-- Иконка звезда-->
    <symbol id="icon-star" viewBox='0 0 24 24' width="24" height="24" fill="none">
        <path
            d="M22 9.67002C21.9368 9.48711 21.822 9.32645 21.6693 9.20753C21.5167 9.0886 21.3328 9.01652 21.14 9.00002L15.45 8.17002L12.9 3.00002C12.8181 2.83095 12.6902 2.68837 12.5311 2.5886C12.3719 2.48883 12.1878 2.43591 12 2.43591C11.8121 2.43591 11.6281 2.48883 11.4689 2.5886C11.3097 2.68837 11.1819 2.83095 11.1 3.00002L8.54998 8.16002L2.85998 9.00002C2.6749 9.02633 2.5009 9.10399 2.35773 9.22418C2.21455 9.34438 2.10794 9.5023 2.04998 9.68002C1.99692 9.8537 1.99216 10.0385 2.03621 10.2147C2.08025 10.3909 2.17144 10.5517 2.29998 10.68L6.42998 14.68L5.42998 20.36C5.3896 20.5484 5.40453 20.7445 5.47296 20.9247C5.54139 21.1048 5.66041 21.2613 5.81571 21.3754C5.971 21.4895 6.15595 21.5563 6.34831 21.5678C6.54066 21.5792 6.73224 21.5349 6.89998 21.44L12 18.77L17.1 21.44C17.2403 21.5192 17.3988 21.5606 17.56 21.56C17.7718 21.5608 17.9784 21.4942 18.15 21.37C18.3051 21.2589 18.4252 21.1057 18.4961 20.9285C18.567 20.7513 18.5857 20.5575 18.55 20.37L17.55 14.69L21.68 10.69C21.8244 10.5677 21.9311 10.4069 21.9877 10.2264C22.0444 10.0458 22.0486 9.8529 22 9.67002ZM15.85 13.67C15.7342 13.7824 15.6474 13.9212 15.5969 14.0744C15.5464 14.2276 15.5337 14.3908 15.56 14.55L16.28 18.75L12.52 16.75C12.3738 16.6777 12.213 16.6401 12.05 16.6401C11.8869 16.6401 11.7261 16.6777 11.58 16.75L7.81998 18.75L8.53998 14.55C8.56622 14.3908 8.55354 14.2276 8.50305 14.0744C8.45255 13.9212 8.36572 13.7824 8.24998 13.67L5.24998 10.67L9.45998 10.06C9.62198 10.0375 9.77598 9.97556 9.90848 9.87967C10.041 9.78379 10.1479 9.65686 10.22 9.51002L12 5.70002L13.88 9.52002C13.952 9.66686 14.059 9.79379 14.1915 9.88968C14.324 9.98556 14.478 10.0475 14.64 10.07L18.85 10.68L15.85 13.67Z"
            fill="#050510" />
    </symbol>
    <!-- Иконка телефона-->
    <symbol id="icon-phone" viewBox='0 0 24 24' width="24" height="24" fill="none">
        <path
            d="M22 9.67002C21.9368 9.48711 21.822 9.32645 21.6693 9.20753C21.5167 9.0886 21.3328 9.01652 21.14 9.00002L15.45 8.17002L12.9 3.00002C12.8181 2.83095 12.6902 2.68837 12.5311 2.5886C12.3719 2.48883 12.1878 2.43591 12 2.43591C11.8121 2.43591 11.6281 2.48883 11.4689 2.5886C11.3097 2.68837 11.1819 2.83095 11.1 3.00002L8.54998 8.16002L2.85998 9.00002C2.6749 9.02633 2.5009 9.10399 2.35773 9.22418C2.21455 9.34438 2.10794 9.5023 2.04998 9.68002C1.99692 9.8537 1.99216 10.0385 2.03621 10.2147C2.08025 10.3909 2.17144 10.5517 2.29998 10.68L6.42998 14.68L5.42998 20.36C5.3896 20.5484 5.40453 20.7445 5.47296 20.9247C5.54139 21.1048 5.66041 21.2613 5.81571 21.3754C5.971 21.4895 6.15595 21.5563 6.34831 21.5678C6.54066 21.5792 6.73224 21.5349 6.89998 21.44L12 18.77L17.1 21.44C17.2403 21.5192 17.3988 21.5606 17.56 21.56C17.7718 21.5608 17.9784 21.4942 18.15 21.37C18.3051 21.2589 18.4252 21.1057 18.4961 20.9285C18.567 20.7513 18.5857 20.5575 18.55 20.37L17.55 14.69L21.68 10.69C21.8244 10.5677 21.9311 10.4069 21.9877 10.2264C22.0444 10.0458 22.0486 9.8529 22 9.67002ZM15.85 13.67C15.7342 13.7824 15.6474 13.9212 15.5969 14.0744C15.5464 14.2276 15.5337 14.3908 15.56 14.55L16.28 18.75L12.52 16.75C12.3738 16.6777 12.213 16.6401 12.05 16.6401C11.8869 16.6401 11.7261 16.6777 11.58 16.75L7.81998 18.75L8.53998 14.55C8.56622 14.3908 8.55354 14.2276 8.50305 14.0744C8.45255 13.9212 8.36572 13.7824 8.24998 13.67L5.24998 10.67L9.45998 10.06C9.62198 10.0375 9.77598 9.97556 9.90848 9.87967C10.041 9.78379 10.1479 9.65686 10.22 9.51002L12 5.70002L13.88 9.52002C13.952 9.66686 14.059 9.79379 14.1915 9.88968C14.324 9.98556 14.478 10.0475 14.64 10.07L18.85 10.68L15.85 13.67Z"
            fill="#050510" />
    </symbol>
</svg>